<?xml version="1.0" encoding="UTF-8"?>
<!DOCTYPE svg PUBLIC "-//W3C//DTD SVG 1.1//EN" "http://www.w3.org/Graphics/SVG/1.1/DTD/svg11.dtd">
<svg xmlns="http://www.w3.org/2000/svg" version="1.1" width="100px" height="100px" style="shape-rendering:geometricPrecision; text-rendering:geometricPrecision; image-rendering:optimizeQuality; fill-rule:evenodd; clip-rule:evenodd" xmlns:xlink="http://www.w3.org/1999/xlink">
<g><path style="opacity:0.995" fill="#2296f3" d="M 38.5,-0.5 C 45.8333,-0.5 53.1667,-0.5 60.5,-0.5C 80.9445,5.61079 93.9445,18.9441 99.5,39.5C 99.5,46.1667 99.5,52.8333 99.5,59.5C 93.8333,80.5 80.5,93.8333 59.5,99.5C 52.8333,99.5 46.1667,99.5 39.5,99.5C 18.9441,93.9445 5.61079,80.9445 -0.5,60.5C -0.5,53.1667 -0.5,45.8333 -0.5,38.5C 5.5,18.5 18.5,5.5 38.5,-0.5 Z"/></g>
<g><path style="opacity:1" fill="#f9f9f9" d="M 47.5,23.5 C 49.7224,23.178 51.5557,23.8446 53,25.5C 53.4996,32.1583 53.6663,38.825 53.5,45.5C 60.175,45.3337 66.8417,45.5004 73.5,46C 76.1667,48.3333 76.1667,50.6667 73.5,53C 66.8417,53.4996 60.175,53.6663 53.5,53.5C 53.6663,60.175 53.4996,66.8417 53,73.5C 50.6667,76.1667 48.3333,76.1667 46,73.5C 45.5004,66.8417 45.3337,60.175 45.5,53.5C 38.825,53.6663 32.1583,53.4996 25.5,53C 22.8333,50.6667 22.8333,48.3333 25.5,46C 32.1583,45.5004 38.825,45.3337 45.5,45.5C 45.3337,38.825 45.5004,32.1583 46,25.5C 46.7172,24.9558 47.2172,24.2891 47.5,23.5 Z"/></g>
</svg>
