<?xml version="1.0" encoding="UTF-8"?>
<!DOCTYPE svg PUBLIC "-//W3C//DTD SVG 1.1//EN" "http://www.w3.org/Graphics/SVG/1.1/DTD/svg11.dtd">
<svg xmlns="http://www.w3.org/2000/svg" version="1.1" width="373px" height="158px" style="shape-rendering:geometricPrecision; text-rendering:geometricPrecision; image-rendering:optimizeQuality; fill-rule:evenodd; clip-rule:evenodd" xmlns:xlink="http://www.w3.org/1999/xlink">
<g><path style="opacity:0.455" fill="#a1dfdf" d="M 72.5,33.5 C 72.5,33.8333 72.5,34.1667 72.5,34.5C 65.2605,33.9529 58.2605,34.6195 51.5,36.5C 51.8333,35.8333 52.1667,35.1667 52.5,34.5C 56.2227,33.0033 60.2227,32.3367 64.5,32.5C 67.3555,32.5025 70.0221,32.8359 72.5,33.5 Z"/></g>
<g><path style="opacity:1" fill="#39babc" d="M 72.5,34.5 C 78.4932,34.6722 79.8265,37.1722 76.5,42C 70.5956,40.8785 64.5956,40.5452 58.5,41C 49.5978,45.3147 48.2644,51.3147 54.5,59C 56.76,60.7883 59.0934,62.2883 61.5,63.5C 59.8008,63.6602 58.1341,63.4935 56.5,63C 53.7567,60.6338 50.7567,58.8005 47.5,57.5C 47.971,61.7791 49.971,65.1124 53.5,67.5C 52.8333,67.5 52.1667,67.5 51.5,67.5C 50.5084,67.6716 49.8417,67.3382 49.5,66.5C 41.3511,58.1191 40.5177,49.1191 47,39.5C 48.129,37.8588 49.629,36.8588 51.5,36.5C 58.2605,34.6195 65.2605,33.9529 72.5,34.5 Z"/></g>
<g><path style="opacity:0.614" fill="#9b8fb7" d="M 167.5,37.5 C 167.5,37.8333 167.5,38.1667 167.5,38.5C 163.167,38.5 158.833,38.5 154.5,38.5C 153.833,38.5 153.167,38.5 152.5,38.5C 152.5,38.1667 152.5,37.8333 152.5,37.5C 157.6,36.2001 162.6,36.2001 167.5,37.5 Z"/></g>
<g><path style="opacity:0.125" fill="#c6bce1" d="M 167.5,38.5 C 167.5,38.1667 167.5,37.8333 167.5,37.5C 170.495,37.2938 173.162,37.9605 175.5,39.5C 173.139,39.3259 170.806,38.9926 168.5,38.5C 168.167,38.5 167.833,38.5 167.5,38.5 Z"/></g>
<g><path style="opacity:0.545" fill="#aca0c4" d="M 152.5,37.5 C 152.5,37.8333 152.5,38.1667 152.5,38.5C 148.904,39.8004 145.237,40.8004 141.5,41.5C 144.8,39.3582 148.467,38.0249 152.5,37.5 Z"/></g>
<g><path style="opacity:0.055" fill="#d6fefe" d="M 278.5,30.5 C 275.615,30.1936 272.948,30.5269 270.5,31.5C 269.502,54.6607 269.169,77.994 269.5,101.5C 268.337,78.0036 268.17,54.3369 269,30.5C 272.269,29.1816 275.435,29.1816 278.5,30.5 Z"/></g>
<g><path style="opacity:0.149" fill="#c4fefe" d="M 278.5,31.5 C 278.5,31.1667 278.5,30.8333 278.5,30.5C 280.468,38.4329 281.135,46.7663 280.5,55.5C 279.833,47.5 279.167,39.5 278.5,31.5 Z"/></g>
<g><path style="opacity:1" fill="#5a488c" d="M 152.5,38.5 C 153.167,38.5 153.833,38.5 154.5,38.5C 156.223,39.8001 158.39,40.4668 161,40.5C 163.167,40.3333 165.333,40.1667 167.5,40C 168.056,39.6174 168.389,39.1174 168.5,38.5C 170.806,38.9926 173.139,39.3259 175.5,39.5C 177.034,41.369 179.034,42.7023 181.5,43.5C 181.213,45.1207 180.213,46.1207 178.5,46.5C 177.158,44.9951 175.492,44.3285 173.5,44.5C 164.899,41.6009 156.566,41.9343 148.5,45.5C 140.841,47.1513 135.174,51.4846 131.5,58.5C 129.368,58.4456 128.035,57.4456 127.5,55.5C 131.306,49.9386 135.973,45.2719 141.5,41.5C 145.237,40.8004 148.904,39.8004 152.5,38.5 Z"/></g>
<g><path style="opacity:1" fill="#42287a" d="M 154.5,38.5 C 158.833,38.5 163.167,38.5 167.5,38.5C 167.833,38.5 168.167,38.5 168.5,38.5C 168.389,39.1174 168.056,39.6174 167.5,40C 165.333,40.1667 163.167,40.3333 161,40.5C 158.39,40.4668 156.223,39.8001 154.5,38.5 Z"/></g>
<g><path style="opacity:0.553" fill="#9ceef0" d="M 278.5,31.5 C 279.167,39.5 279.833,47.5 280.5,55.5C 282.5,54.8333 284.5,54.1667 286.5,53.5C 285.167,54.8333 283.833,56.1667 282.5,57.5C 281.844,58.2778 281.011,58.9444 280,59.5C 279.235,59.4301 278.735,59.0967 278.5,58.5C 278.5,49.5 278.5,40.5 278.5,31.5 Z"/></g>
<g><path style="opacity:0.319" fill="#b2a8cf" d="M 173.5,44.5 C 174.694,45.2719 175.694,46.2719 176.5,47.5C 167.37,43.6909 158.036,43.0243 148.5,45.5C 156.566,41.9343 164.899,41.6009 173.5,44.5 Z"/></g>
<g><path style="opacity:0.157" fill="#b1eef0" d="M 72.5,34.5 C 72.5,34.1667 72.5,33.8333 72.5,33.5C 79.7165,33.7664 81.3832,37.0998 77.5,43.5C 75.4503,44.6627 73.4503,44.4961 71.5,43C 66.8333,42.3333 62.1667,42.3333 57.5,43C 52.391,46.3662 51.2243,50.8662 54,56.5C 58.1887,59.8257 62.6887,62.4923 67.5,64.5C 65.8333,64.5 64.1667,64.5 62.5,64.5C 62.5,63.8333 62.1667,63.5 61.5,63.5C 59.0934,62.2883 56.76,60.7883 54.5,59C 48.2644,51.3147 49.5978,45.3147 58.5,41C 64.5956,40.5452 70.5956,40.8785 76.5,42C 79.8265,37.1722 78.4932,34.6722 72.5,34.5 Z"/></g>
<g><path style="opacity:0.271" fill="#bbb2d4" d="M 175.5,39.5 C 181.161,40.9947 185.828,43.9947 189.5,48.5C 187.5,47.5 185.5,46.5 183.5,45.5C 183.167,44.5 182.5,43.8333 181.5,43.5C 179.034,42.7023 177.034,41.369 175.5,39.5 Z"/></g>
<g><path style="opacity:1" fill="#23b2b0" d="M 273.5,55.5 C 274.149,69.8733 273.482,83.8733 271.5,97.5C 271.5,77.8333 271.5,58.1667 271.5,38.5C 272.222,38.0825 272.722,37.4158 273,36.5C 273.5,42.8246 273.666,49.1579 273.5,55.5 Z"/></g>
<g><path style="opacity:1" fill="#6b5c97" d="M 181.5,43.5 C 182.5,43.8333 183.167,44.5 183.5,45.5C 182.527,45.9867 181.527,46.4867 180.5,47C 181.973,47.7096 182.64,48.8762 182.5,50.5C 182.167,50.5 181.833,50.5 181.5,50.5C 181.027,49.0937 180.027,48.427 178.5,48.5C 177.508,48.6716 176.842,48.3382 176.5,47.5C 175.694,46.2719 174.694,45.2719 173.5,44.5C 175.492,44.3285 177.158,44.9951 178.5,46.5C 180.213,46.1207 181.213,45.1207 181.5,43.5 Z"/></g>
<g><path style="opacity:0.278" fill="#b3acd3" d="M 141.5,41.5 C 135.973,45.2719 131.306,49.9386 127.5,55.5C 127.167,55.5 126.833,55.5 126.5,55.5C 126.5,55.1667 126.5,54.8333 126.5,54.5C 130.103,48.5353 135.103,44.202 141.5,41.5 Z"/></g>
<g><path style="opacity:0.235" fill="#c3b9d2" d="M 178.5,48.5 C 180.027,48.427 181.027,49.0937 181.5,50.5C 179.973,50.573 178.973,49.9063 178.5,48.5 Z"/></g>
<g><path style="opacity:1" fill="#52498d" d="M 183.5,45.5 C 185.5,46.5 187.5,47.5 189.5,48.5C 190.075,50.4113 191.075,52.078 192.5,53.5C 192.802,56.0593 192.468,58.3926 191.5,60.5C 189.212,56.5442 186.212,53.2109 182.5,50.5C 182.64,48.8762 181.973,47.7096 180.5,47C 181.527,46.4867 182.527,45.9867 183.5,45.5 Z"/></g>
<g><path style="opacity:0.408" fill="#b0b4d7" d="M 189.5,48.5 C 191.167,49.5 192.5,50.8333 193.5,52.5C 193.5,52.8333 193.5,53.1667 193.5,53.5C 193.167,53.5 192.833,53.5 192.5,53.5C 191.075,52.078 190.075,50.4113 189.5,48.5 Z"/></g>
<g><path style="opacity:0.449" fill="#a5e8e7" d="M 52.5,34.5 C 52.1667,35.1667 51.8333,35.8333 51.5,36.5C 49.629,36.8588 48.129,37.8588 47,39.5C 40.5177,49.1191 41.3511,58.1191 49.5,66.5C 43.7383,63.3333 40.7383,58.3333 40.5,51.5C 40.8567,43.0776 44.8567,37.411 52.5,34.5 Z"/></g>
<g><path style="opacity:0.435" fill="#b2acd2" d="M 181.5,50.5 C 181.833,50.5 182.167,50.5 182.5,50.5C 186.212,53.2109 189.212,56.5442 191.5,60.5C 191.5,60.8333 191.5,61.1667 191.5,61.5C 191.167,61.5 190.833,61.5 190.5,61.5C 187.878,57.5428 184.878,53.8761 181.5,50.5 Z"/></g>
<g><path style="opacity:0.267" fill="#afeded" d="M 175.5,58.5 C 173.167,57.1667 170.833,55.8333 168.5,54.5C 160.776,51.7797 153.109,52.1131 145.5,55.5C 147.121,53.8828 149.121,52.7162 151.5,52C 156.833,51.3333 162.167,51.3333 167.5,52C 171.007,53.3589 173.673,55.5256 175.5,58.5 Z"/></g>
<g><path style="opacity:0.478" fill="#b0f0f1" d="M 119.5,52.5 C 115.486,52.3345 111.486,52.5012 107.5,53C 106.584,53.2784 105.918,53.7784 105.5,54.5C 101.069,55.5911 97.4024,57.9245 94.5,61.5C 96.7211,56.7865 100.388,53.6199 105.5,52C 110.352,51.1849 115.019,51.3516 119.5,52.5 Z"/></g>
<g><path style="opacity:0.125" fill="#b2f6f7" d="M 193.5,53.5 C 193.5,53.1667 193.5,52.8333 193.5,52.5C 196.388,51.9898 198.721,52.6565 200.5,54.5C 200.167,54.5 199.833,54.5 199.5,54.5C 197.735,53.5386 195.735,53.2053 193.5,53.5 Z"/></g>
<g><path style="opacity:1" fill="#4ec5c3" d="M 278.5,30.5 C 278.5,30.8333 278.5,31.1667 278.5,31.5C 278.5,40.5 278.5,49.5 278.5,58.5C 278.167,58.5 277.833,58.5 277.5,58.5C 277.5,49.5 277.5,40.5 277.5,31.5C 275.5,31.5 273.5,31.5 271.5,31.5C 271.5,33.8333 271.5,36.1667 271.5,38.5C 271.5,58.1667 271.5,77.8333 271.5,97.5C 271.5,98.1667 271.5,98.8333 271.5,99.5C 271.167,99.5 270.833,99.5 270.5,99.5C 270.5,76.8333 270.5,54.1667 270.5,31.5C 272.948,30.5269 275.615,30.1936 278.5,30.5 Z"/></g>
<g><path style="opacity:1" fill="#29babc" d="M 277.5,58.5 C 276.764,56.7706 275.43,55.7706 273.5,55.5C 273.666,49.1579 273.5,42.8246 273,36.5C 272.722,37.4158 272.222,38.0825 271.5,38.5C 271.5,36.1667 271.5,33.8333 271.5,31.5C 273.5,31.5 275.5,31.5 277.5,31.5C 277.5,40.5 277.5,49.5 277.5,58.5 Z"/></g>
<g><path style="opacity:1" fill="#51cbcb" d="M 119.5,52.5 C 120.167,53.1667 120.833,53.8333 121.5,54.5C 116.167,54.5 110.833,54.5 105.5,54.5C 105.918,53.7784 106.584,53.2784 107.5,53C 111.486,52.5012 115.486,52.3345 119.5,52.5 Z"/></g>
<g><path style="opacity:0.11" fill="#b6add3" d="M 148.5,45.5 C 141.962,48.7722 136.628,53.4389 132.5,59.5C 132.167,59.5 131.833,59.5 131.5,59.5C 131.5,59.1667 131.5,58.8333 131.5,58.5C 135.174,51.4846 140.841,47.1513 148.5,45.5 Z"/></g>
<g><path style="opacity:0.467" fill="#abeaea" d="M 310.5,62.5 C 307.888,58.8978 304.555,55.8978 300.5,53.5C 295.817,52.2805 291.15,52.2805 286.5,53.5C 295.135,49.5694 302.635,51.236 309,58.5C 309.791,59.745 310.291,61.0783 310.5,62.5 Z"/></g>
<g><path style="opacity:0.247" fill="#a8e7e9" d="M 119.5,52.5 C 121.685,52.7036 123.685,53.3702 125.5,54.5C 125.672,55.4916 125.338,56.1583 124.5,56.5C 123.71,55.5987 122.71,54.9321 121.5,54.5C 120.833,53.8333 120.167,53.1667 119.5,52.5 Z"/></g>
<g><path style="opacity:1" fill="#41b8bb" d="M 168.5,54.5 C 165.972,55.1657 163.306,55.8324 160.5,56.5C 160.709,57.086 161.043,57.586 161.5,58C 158.635,58.1829 155.969,58.6829 153.5,59.5C 151.213,59.7239 149.047,60.3906 147,61.5C 144.535,59.946 144.035,57.946 145.5,55.5C 153.109,52.1131 160.776,51.7797 168.5,54.5 Z"/></g>
<g><path style="opacity:1" fill="#48c2c1" d="M 168.5,54.5 C 170.833,55.8333 173.167,57.1667 175.5,58.5C 175.833,59.8333 176.167,61.1667 176.5,62.5C 175.566,63.5676 175.232,64.901 175.5,66.5C 174.359,64.3331 173.359,61.9998 172.5,59.5C 171.146,57.8164 169.479,57.3164 167.5,58C 169.999,62.1355 170.999,66.6355 170.5,71.5C 169.5,71.5 168.5,71.5 167.5,71.5C 169.711,69.1565 170.045,66.4898 168.5,63.5C 168.043,62.7025 167.376,62.3691 166.5,62.5C 166.047,61.5416 165.381,60.7083 164.5,60C 160.848,59.5014 157.182,59.3347 153.5,59.5C 155.969,58.6829 158.635,58.1829 161.5,58C 161.043,57.586 160.709,57.086 160.5,56.5C 163.306,55.8324 165.972,55.1657 168.5,54.5 Z"/></g>
<g><path style="opacity:0.298" fill="#b4f0f1" d="M 207.5,53.5 C 205.523,55.8138 203.523,58.1472 201.5,60.5C 200.534,58.604 200.201,56.604 200.5,54.5C 201.268,55.2625 201.768,56.2625 202,57.5C 203.451,55.5359 205.284,54.2026 207.5,53.5 Z"/></g>
<g><path style="opacity:0.275" fill="#b4efee" d="M 232.5,55.5 C 230.539,57.9635 228.372,60.2968 226,62.5C 225.209,63.745 224.709,65.0783 224.5,66.5C 223.463,67.9303 222.796,69.597 222.5,71.5C 221.514,75.97 221.181,80.6367 221.5,85.5C 219.432,77.1534 220.599,69.1534 225,61.5C 227.106,58.8823 229.606,56.8823 232.5,55.5 Z"/></g>
<g><path style="opacity:1" fill="#45b9bc" d="M 238.5,60.5 C 237.668,59.6715 238.001,58.8382 239.5,58C 244.833,57.6667 250.167,57.3333 255.5,57C 249.731,55.9785 244.064,55.1451 238.5,54.5C 238.918,53.7784 239.584,53.2784 240.5,53C 246.659,52.1017 252.659,52.6017 258.5,54.5C 259.073,57.6167 257.906,59.6167 255,60.5C 249.49,59.1988 243.99,59.1988 238.5,60.5 Z"/></g>
<g><path style="opacity:1" fill="#40bbbd" d="M 310.5,62.5 C 311.418,74.803 311.752,87.1363 311.5,99.5C 309.521,87.8799 308.854,75.8799 309.5,63.5C 308.5,63.5 307.5,63.5 306.5,63.5C 306.33,58.652 303.997,56.9853 299.5,58.5C 301.086,60.1727 301.753,62.1727 301.5,64.5C 300.078,63.075 298.411,62.075 296.5,61.5C 296.389,60.8826 296.056,60.3826 295.5,60C 292.833,59.3333 290.167,59.3333 287.5,60C 286.619,60.7083 285.953,61.5416 285.5,62.5C 281.477,63.0252 279.31,65.3585 279,69.5C 278.5,80.1615 278.333,90.8281 278.5,101.5C 275.302,102.036 272.635,101.369 270.5,99.5C 270.833,99.5 271.167,99.5 271.5,99.5C 273.167,99.5 274.833,99.5 276.5,99.5C 275.377,95.2981 274.71,90.9648 274.5,86.5C 274.767,80.4911 275.1,74.4911 275.5,68.5C 276.5,68.5 277.5,68.5 278.5,68.5C 278.26,64.5676 279.927,61.7343 283.5,60C 282.748,59.3292 282.414,58.4959 282.5,57.5C 283.833,56.1667 285.167,54.8333 286.5,53.5C 291.15,52.2805 295.817,52.2805 300.5,53.5C 304.555,55.8978 307.888,58.8978 310.5,62.5 Z"/></g>
<g><path style="opacity:1" fill="#2fbbb9" d="M 105.5,54.5 C 110.833,54.5 116.167,54.5 121.5,54.5C 122.71,54.9321 123.71,55.5987 124.5,56.5C 124.92,58.674 124.92,60.674 124.5,62.5C 122.925,61.5435 121.258,60.8769 119.5,60.5C 116.039,58.9089 112.372,58.2422 108.5,58.5C 103.941,58.9909 102.941,57.6576 105.5,54.5 Z"/></g>
<g><path style="opacity:0.984" fill="#4e709c" d="M 126.5,55.5 C 126.833,55.5 127.167,55.5 127.5,55.5C 128.035,57.4456 129.368,58.4456 131.5,58.5C 131.5,58.8333 131.5,59.1667 131.5,59.5C 130.833,59.5 130.5,59.8333 130.5,60.5C 127.703,60.0334 126.369,58.3667 126.5,55.5 Z"/></g>
<g><path style="opacity:1" fill="#27bdc1" d="M 61.5,63.5 C 62.1667,63.5 62.5,63.8333 62.5,64.5C 63.4339,66.2385 63.4339,67.9052 62.5,69.5C 60.5914,68.6518 58.5914,68.3184 56.5,68.5C 55.609,67.8902 54.609,67.5569 53.5,67.5C 49.971,65.1124 47.971,61.7791 47.5,57.5C 50.7567,58.8005 53.7567,60.6338 56.5,63C 58.1341,63.4935 59.8008,63.6602 61.5,63.5 Z"/></g>
<g><path style="opacity:0.257" fill="#aee8eb" d="M 296.5,61.5 C 294.801,61.3796 293.135,61.0463 291.5,60.5C 289.484,61.1776 287.484,61.8443 285.5,62.5C 285.953,61.5416 286.619,60.7083 287.5,60C 290.167,59.3333 292.833,59.3333 295.5,60C 296.056,60.3826 296.389,60.8826 296.5,61.5 Z"/></g>
<g><path style="opacity:1" fill="#39b8b9" d="M 105.5,54.5 C 102.941,57.6576 103.941,58.9909 108.5,58.5C 102.804,61.8731 99.471,66.8731 98.5,73.5C 105.5,73.5 112.5,73.5 119.5,73.5C 119.5,73.8333 119.5,74.1667 119.5,74.5C 112.159,74.6663 104.826,74.4997 97.5,74C 96.2309,71.8615 96.2309,69.6948 97.5,67.5C 99.3758,65.1271 101.042,62.6271 102.5,60C 100.433,59.4644 98.5994,59.9644 97,61.5C 96.7468,64.7896 95.7468,67.7896 94,70.5C 93.501,74.8206 93.3343,79.1539 93.5,83.5C 93.0679,84.7095 92.4013,85.7095 91.5,86.5C 91.3338,80.4908 91.5005,74.4908 92,68.5C 93.5234,66.4308 94.3568,64.0974 94.5,61.5C 97.4024,57.9245 101.069,55.5911 105.5,54.5 Z"/></g>
<g><path style="opacity:0.325" fill="#aae9e9" d="M 108.5,58.5 C 112.372,58.2422 116.039,58.9089 119.5,60.5C 121.279,61.6697 122.279,63.3364 122.5,65.5C 121.833,65.5 121.5,65.8333 121.5,66.5C 121.167,66.5 120.833,66.5 120.5,66.5C 119.832,62.3352 117.332,60.0019 113,59.5C 106.847,60.8151 102.68,64.4817 100.5,70.5C 106.442,72.4258 112.442,72.7591 118.5,71.5C 118.5,72.1667 118.833,72.5 119.5,72.5C 119.5,72.8333 119.5,73.1667 119.5,73.5C 112.5,73.5 105.5,73.5 98.5,73.5C 99.471,66.8731 102.804,61.8731 108.5,58.5 Z"/></g>
<g><path style="opacity:1" fill="#4a8caa" d="M 192.5,53.5 C 192.833,53.5 193.167,53.5 193.5,53.5C 193.736,56.6085 193.403,59.6085 192.5,62.5C 191.833,62.5 191.5,62.1667 191.5,61.5C 191.5,61.1667 191.5,60.8333 191.5,60.5C 192.468,58.3926 192.802,56.0593 192.5,53.5 Z"/></g>
<g><path style="opacity:1" fill="#3abdbd" d="M 238.5,54.5 C 244.064,55.1451 249.731,55.9785 255.5,57C 250.167,57.3333 244.833,57.6667 239.5,58C 238.001,58.8382 237.668,59.6715 238.5,60.5C 235.06,63.6066 232.393,67.2732 230.5,71.5C 229.34,68.4297 230.007,65.5963 232.5,63C 231.584,62.6258 230.75,62.1258 230,61.5C 228.801,63.5756 227.301,65.2423 225.5,66.5C 225.167,66.5 224.833,66.5 224.5,66.5C 224.709,65.0783 225.209,63.745 226,62.5C 228.372,60.2968 230.539,57.9635 232.5,55.5C 234.565,55.4828 236.565,55.1495 238.5,54.5 Z"/></g>
<g><path style="opacity:0.075" fill="#baf1f1" d="M 145.5,55.5 C 144.035,57.946 144.535,59.946 147,61.5C 149.047,60.3906 151.213,59.7239 153.5,59.5C 157.182,59.3347 160.848,59.5014 164.5,60C 165.381,60.7083 166.047,61.5416 166.5,62.5C 160.114,59.9647 153.614,59.9647 147,62.5C 144.526,62.0642 143.359,60.5642 143.5,58C 143.684,56.6244 144.351,55.7911 145.5,55.5 Z"/></g>
<g><path style="opacity:1" fill="#38bdbf" d="M 201.5,69.5 C 199.64,68.9285 197.973,68.9285 196.5,69.5C 195.833,65.1667 195.167,60.8333 194.5,56.5C 195.5,56.5 196.5,56.5 197.5,56.5C 197.201,58.604 197.534,60.604 198.5,62.5C 199.48,59.9135 199.813,57.2469 199.5,54.5C 199.833,54.5 200.167,54.5 200.5,54.5C 200.201,56.604 200.534,58.604 201.5,60.5C 203.523,58.1472 205.523,55.8138 207.5,53.5C 210.482,53.0371 213.482,52.7038 216.5,52.5C 216.5,55.1667 216.5,57.8333 216.5,60.5C 209.422,60.1998 204.422,63.1998 201.5,69.5 Z"/></g>
<g><path style="opacity:1" fill="#2ebdbe" d="M 273.5,55.5 C 275.43,55.7706 276.764,56.7706 277.5,58.5C 277.833,58.5 278.167,58.5 278.5,58.5C 278.735,59.0967 279.235,59.4301 280,59.5C 281.011,58.9444 281.844,58.2778 282.5,57.5C 282.414,58.4959 282.748,59.3292 283.5,60C 279.927,61.7343 278.26,64.5676 278.5,68.5C 277.5,68.5 276.5,68.5 275.5,68.5C 275.1,74.4911 274.767,80.4911 274.5,86.5C 274.71,90.9648 275.377,95.2981 276.5,99.5C 274.833,99.5 273.167,99.5 271.5,99.5C 271.5,98.8333 271.5,98.1667 271.5,97.5C 273.482,83.8733 274.149,69.8733 273.5,55.5 Z"/></g>
<g><path style="opacity:0.49" fill="#b1edec" d="M 131.5,59.5 C 131.833,59.5 132.167,59.5 132.5,59.5C 132.196,60.1499 131.863,60.8165 131.5,61.5C 132.946,63.6179 133.613,65.9512 133.5,68.5C 131.733,66.2084 130.733,63.5418 130.5,60.5C 130.5,59.8333 130.833,59.5 131.5,59.5 Z"/></g>
<g><path style="opacity:0.22" fill="#b0edee" d="M 232.5,85.5 C 231.833,84.8333 231.167,84.1667 230.5,83.5C 230.5,79.5 230.5,75.5 230.5,71.5C 232.393,67.2732 235.06,63.6066 238.5,60.5C 243.99,59.1988 249.49,59.1988 255,60.5C 257.906,59.6167 259.073,57.6167 258.5,54.5C 252.659,52.6017 246.659,52.1017 240.5,53C 239.584,53.2784 238.918,53.7784 238.5,54.5C 236.565,55.1495 234.565,55.4828 232.5,55.5C 237.022,52.1252 242.189,50.7918 248,51.5C 250.833,51.6667 253.667,51.8333 256.5,52C 260.994,54.467 261.66,57.8003 258.5,62C 238.584,57.4165 229.918,65.2498 232.5,85.5 Z"/></g>
<g><path style="opacity:0.369" fill="#adebee" d="M 67.5,64.5 C 69.3084,64.4914 70.9751,64.9914 72.5,66C 75.7392,67.7364 78.0726,70.2364 79.5,73.5C 75.4762,70.4686 71.4762,67.4686 67.5,64.5 Z"/></g>
<g><path style="opacity:0.083" fill="#ccf6f9" d="M 190.5,61.5 C 190.833,61.5 191.167,61.5 191.5,61.5C 191.5,62.1667 191.833,62.5 192.5,62.5C 192.5,72.5 192.5,82.5 192.5,92.5C 192.167,93.1667 191.833,93.8333 191.5,94.5C 191.167,94.5 190.833,94.5 190.5,94.5C 191.833,83.5 191.833,72.5 190.5,61.5 Z"/></g>
<g><path style="opacity:1" fill="#37557e" d="M 121.5,67.5 C 122.649,67.7911 123.316,68.6244 123.5,70C 123.316,71.3756 122.649,72.2089 121.5,72.5C 121.5,70.8333 121.5,69.1667 121.5,67.5 Z"/></g>
<g><path style="opacity:1" fill="#2dbabb" d="M 311.5,99.5 C 311.5,99.8333 311.5,100.167 311.5,100.5C 308.833,100.5 306.167,100.5 303.5,100.5C 303.828,89.6536 303.494,78.9869 302.5,68.5C 301.766,67.2921 301.433,65.9587 301.5,64.5C 301.753,62.1727 301.086,60.1727 299.5,58.5C 303.997,56.9853 306.33,58.652 306.5,63.5C 307.5,63.5 308.5,63.5 309.5,63.5C 308.854,75.8799 309.521,87.8799 311.5,99.5 Z"/></g>
<g><path style="opacity:0.624" fill="#96dee1" d="M 51.5,67.5 C 52.1667,67.5 52.8333,67.5 53.5,67.5C 54.609,67.5569 55.609,67.8902 56.5,68.5C 59.3522,70.0765 62.3522,71.5765 65.5,73C 66.3805,73.7083 67.0472,74.5416 67.5,75.5C 61.8489,73.3412 56.5156,70.6745 51.5,67.5 Z"/></g>
<g><path style="opacity:1" fill="#31bcbc" d="M 175.5,66.5 C 175.378,76.7498 175.378,86.9165 175.5,97C 174.268,100.39 173.434,100.223 173,96.5C 172.51,97.7932 172.343,99.1266 172.5,100.5C 171.566,99.4324 171.232,98.099 171.5,96.5C 168.863,97.7819 166.196,99.1153 163.5,100.5C 160.788,98.4319 157.788,97.0986 154.5,96.5C 160.469,97.1939 165.135,95.1939 168.5,90.5C 169.8,88.777 170.467,86.6103 170.5,84C 170.496,81.6392 170.163,79.4726 169.5,77.5C 166.023,76.6773 162.356,76.1773 158.5,76C 158.833,75.6667 159.167,75.3333 159.5,75C 157.618,74.8019 155.952,74.3019 154.5,73.5C 157.698,74.0356 160.365,73.369 162.5,71.5C 164.167,71.5 165.833,71.5 167.5,71.5C 168.5,71.5 169.5,71.5 170.5,71.5C 170.999,66.6355 169.999,62.1355 167.5,58C 169.479,57.3164 171.146,57.8164 172.5,59.5C 173.359,61.9998 174.359,64.3331 175.5,66.5 Z"/></g>
<g><path style="opacity:1" fill="#41babc" d="M 62.5,64.5 C 64.1667,64.5 65.8333,64.5 67.5,64.5C 71.4762,67.4686 75.4762,70.4686 79.5,73.5C 81.0699,78.3927 81.5699,83.3927 81,88.5C 80.455,91.5268 78.955,93.8601 76.5,95.5C 75.9569,95.44 75.6236,95.1067 75.5,94.5C 76.3333,92.8333 77.1667,91.1667 78,89.5C 78.3333,89.8333 78.6667,90.1667 79,90.5C 79.8275,86.1287 79.6609,81.7953 78.5,77.5C 76.6729,75.5 75.0062,73.3333 73.5,71C 71.567,70.7489 69.7337,70.2489 68,69.5C 67.0805,69.9302 66.2472,70.2635 65.5,70.5C 73.7776,75.1833 76.4443,82.1833 73.5,91.5C 71.7567,93.0383 69.7567,94.0383 67.5,94.5C 69.8907,92.3852 71.2241,89.7186 71.5,86.5C 73.6069,81.5663 72.2736,77.8996 67.5,75.5C 67.0472,74.5416 66.3805,73.7083 65.5,73C 62.3522,71.5765 59.3522,70.0765 56.5,68.5C 58.5914,68.3184 60.5914,68.6518 62.5,69.5C 63.4339,67.9052 63.4339,66.2385 62.5,64.5 Z"/></g>
<g><path style="opacity:0.267" fill="#b6f6f6" d="M 166.5,62.5 C 167.376,62.3691 168.043,62.7025 168.5,63.5C 170.045,66.4898 169.711,69.1565 167.5,71.5C 165.833,71.5 164.167,71.5 162.5,71.5C 161.167,71.5 159.833,71.5 158.5,71.5C 161.171,69.8819 164.171,69.2153 167.5,69.5C 167.702,67.0504 167.369,64.717 166.5,62.5 Z"/></g>
<g><path style="opacity:1" fill="#2fbdc0" d="M 201.5,69.5 C 201.5,70.5 201.5,71.5 201.5,72.5C 200.778,72.0825 200.278,71.4158 200,70.5C 199.5,80.1609 199.334,89.8276 199.5,99.5C 195.877,99.3508 195.543,98.1842 198.5,96C 198,94.5 197.5,93 197,91.5C 196.444,93.5951 195.944,93.7618 195.5,92C 196.45,84.5442 196.784,77.0442 196.5,69.5C 197.973,68.9285 199.64,68.9285 201.5,69.5 Z"/></g>
<g><path style="opacity:0.104" fill="#a7edec" d="M 270.5,31.5 C 270.5,54.1667 270.5,76.8333 270.5,99.5C 272.635,101.369 275.302,102.036 278.5,101.5C 278.333,90.8281 278.5,80.1615 279,69.5C 279.31,65.3585 281.477,63.0252 285.5,62.5C 283.404,64.4333 281.904,66.7666 281,69.5C 280.667,80.1667 280.333,90.8333 280,101.5C 278.006,102.664 275.839,103.331 273.5,103.5C 271.645,103.66 270.312,102.993 269.5,101.5C 269.169,77.994 269.502,54.6607 270.5,31.5 Z"/></g>
<g><path style="opacity:0.196" fill="#b8bae0" d="M 120.5,66.5 C 120.833,66.5 121.167,66.5 121.5,66.5C 121.5,66.8333 121.5,67.1667 121.5,67.5C 121.5,69.1667 121.5,70.8333 121.5,72.5C 121.167,72.5 120.833,72.5 120.5,72.5C 120.167,72.5 119.833,72.5 119.5,72.5C 118.833,72.5 118.5,72.1667 118.5,71.5C 119.931,70.2196 120.598,68.5529 120.5,66.5 Z"/></g>
<g><path style="opacity:0.344" fill="#b6f6f5" d="M 296.5,61.5 C 298.411,62.075 300.078,63.075 301.5,64.5C 301.433,65.9587 301.766,67.2921 302.5,68.5C 302.5,79.5 302.5,90.5 302.5,101.5C 305.713,101.81 308.713,101.477 311.5,100.5C 311.5,100.167 311.5,99.8333 311.5,99.5C 311.752,87.1363 311.418,74.803 310.5,62.5C 312.093,65.6947 313.093,69.1947 313.5,73C 312.537,82.7929 312.204,92.6263 312.5,102.5C 309.934,102.344 307.434,102.678 305,103.5C 302.836,103.334 301.669,102.167 301.5,100C 301.121,88.9163 300.621,77.7497 300,66.5C 299.003,64.6769 297.836,63.0103 296.5,61.5 Z"/></g>
<g><path style="opacity:0.924" fill="#68cdcd" d="M 302.5,68.5 C 303.494,78.9869 303.828,89.6536 303.5,100.5C 306.167,100.5 308.833,100.5 311.5,100.5C 308.713,101.477 305.713,101.81 302.5,101.5C 302.5,90.5 302.5,79.5 302.5,68.5 Z"/></g>
<g><path style="opacity:1" fill="#3f8eaa" d="M 122.5,65.5 C 125.172,67.3914 126.172,70.0581 125.5,73.5C 123.585,73.7845 121.919,73.4511 120.5,72.5C 120.833,72.5 121.167,72.5 121.5,72.5C 122.649,72.2089 123.316,71.3756 123.5,70C 123.316,68.6244 122.649,67.7911 121.5,67.5C 121.5,67.1667 121.5,66.8333 121.5,66.5C 121.5,65.8333 121.833,65.5 122.5,65.5 Z"/></g>
<g><path style="opacity:1" fill="#33c0c0" d="M 230.5,71.5 C 230.5,75.5 230.5,79.5 230.5,83.5C 229.772,86.0795 229.272,88.7462 229,91.5C 227.989,90.6634 226.822,90.33 225.5,90.5C 224.227,82.5033 224.227,74.5033 225.5,66.5C 227.301,65.2423 228.801,63.5756 230,61.5C 230.75,62.1258 231.584,62.6258 232.5,63C 230.007,65.5963 229.34,68.4297 230.5,71.5 Z"/></g>
<g><path style="opacity:1" fill="#2fbfc0" d="M 119.5,74.5 C 119.082,75.2216 118.416,75.7216 117.5,76C 110.754,75.8689 104.421,76.7023 98.5,78.5C 98.5,80.8333 98.5,83.1667 98.5,85.5C 97.8354,83.6309 97.1687,81.6309 96.5,79.5C 95.9432,81.3316 94.9432,82.6649 93.5,83.5C 93.3343,79.1539 93.501,74.8206 94,70.5C 95.7468,67.7896 96.7468,64.7896 97,61.5C 98.5994,59.9644 100.433,59.4644 102.5,60C 101.042,62.6271 99.3758,65.1271 97.5,67.5C 96.2309,69.6948 96.2309,71.8615 97.5,74C 104.826,74.4997 112.159,74.6663 119.5,74.5 Z"/></g>
<g><path style="opacity:1" fill="#42bcbf" d="M 193.5,53.5 C 195.735,53.2053 197.735,53.5386 199.5,54.5C 199.813,57.2469 199.48,59.9135 198.5,62.5C 197.534,60.604 197.201,58.604 197.5,56.5C 196.5,56.5 195.5,56.5 194.5,56.5C 195.167,60.8333 195.833,65.1667 196.5,69.5C 196.784,77.0442 196.45,84.5442 195.5,92C 195.944,93.7618 196.444,93.5951 197,91.5C 197.5,93 198,94.5 198.5,96C 195.543,98.1842 195.877,99.3508 199.5,99.5C 199.334,89.8276 199.5,80.1609 200,70.5C 200.278,71.4158 200.778,72.0825 201.5,72.5C 201.5,82.1667 201.5,91.8333 201.5,101.5C 199.167,101.5 196.833,101.5 194.5,101.5C 194.665,98.1501 194.498,94.8168 194,91.5C 193.617,92.056 193.117,92.3893 192.5,92.5C 192.5,82.5 192.5,72.5 192.5,62.5C 193.403,59.6085 193.736,56.6085 193.5,53.5 Z"/></g>
<g><path style="opacity:0.561" fill="#aaecec" d="M 67.5,75.5 C 72.2736,77.8996 73.6069,81.5663 71.5,86.5C 71.5645,82.301 70.2311,78.6343 67.5,75.5 Z"/></g>
<g><path style="opacity:1" fill="#44babd" d="M 125.5,54.5 C 125.833,54.5 126.167,54.5 126.5,54.5C 126.5,54.8333 126.5,55.1667 126.5,55.5C 126.369,58.3667 127.703,60.0334 130.5,60.5C 130.733,63.5418 131.733,66.2084 133.5,68.5C 134.833,71.8333 134.833,75.1667 133.5,78.5C 131.283,79.3686 128.95,79.702 126.5,79.5C 126.167,79.5 125.833,79.5 125.5,79.5C 123.833,78.1667 122.167,78.1667 120.5,79.5C 120.167,79.5 119.833,79.5 119.5,79.5C 112.687,78.5088 105.687,78.1755 98.5,78.5C 104.421,76.7023 110.754,75.8689 117.5,76C 118.416,75.7216 119.082,75.2216 119.5,74.5C 119.5,74.1667 119.5,73.8333 119.5,73.5C 119.5,73.1667 119.5,72.8333 119.5,72.5C 119.833,72.5 120.167,72.5 120.5,72.5C 121.919,73.4511 123.585,73.7845 125.5,73.5C 126.172,70.0581 125.172,67.3914 122.5,65.5C 122.279,63.3364 121.279,61.6697 119.5,60.5C 121.258,60.8769 122.925,61.5435 124.5,62.5C 124.92,60.674 124.92,58.674 124.5,56.5C 125.338,56.1583 125.672,55.4916 125.5,54.5 Z"/></g>
<g><path style="opacity:0.905" fill="#7fdcdb" d="M 222.5,71.5 C 222.295,77.8778 222.628,84.2111 223.5,90.5C 222.069,89.2196 221.402,87.5529 221.5,85.5C 221.181,80.6367 221.514,75.97 222.5,71.5 Z"/></g>
<g><path style="opacity:0.518" fill="#aeebef" d="M 148.5,74.5 C 146.5,77.1667 144.167,79.5 141.5,81.5C 142.833,78.1667 145.167,75.8333 148.5,74.5 Z"/></g>
<g><path style="opacity:0.724" fill="#79d9db" d="M 98.5,78.5 C 105.687,78.1755 112.687,78.5088 119.5,79.5C 112.833,79.5 106.167,79.5 99.5,79.5C 99.5,81.5 99.5,83.5 99.5,85.5C 99.1667,85.5 98.8333,85.5 98.5,85.5C 98.5,83.1667 98.5,80.8333 98.5,78.5 Z"/></g>
<g><path style="opacity:1" fill="#408aa6" d="M 125.5,79.5 C 125.5,79.8333 125.5,80.1667 125.5,80.5C 125.167,80.5 124.833,80.5 124.5,80.5C 123.5,80.5 122.5,80.5 121.5,80.5C 120.833,80.5 120.5,80.1667 120.5,79.5C 122.167,78.1667 123.833,78.1667 125.5,79.5 Z"/></g>
<g><path style="opacity:1" fill="#5fc4c7" d="M 158.5,71.5 C 159.833,71.5 161.167,71.5 162.5,71.5C 160.365,73.369 157.698,74.0356 154.5,73.5C 153.078,73.7086 151.745,74.2086 150.5,75C 149.149,77.2645 147.483,79.0978 145.5,80.5C 144.542,80.9528 143.708,81.6195 143,82.5C 142.501,86.8206 142.334,91.1539 142.5,95.5C 141.833,95.1667 141.167,94.8333 140.5,94.5C 140.467,90.1311 140.8,85.7978 141.5,81.5C 144.167,79.5 146.5,77.1667 148.5,74.5C 151.452,72.5902 154.786,71.5902 158.5,71.5 Z"/></g>
<g><path style="opacity:0.276" fill="#b6f0f2" d="M 119.5,79.5 C 119.5,80.1667 119.5,80.8333 119.5,81.5C 113.582,80.379 107.582,80.2124 101.5,81C 100.62,82.3561 100.286,83.8561 100.5,85.5C 100.167,85.5 99.8333,85.5 99.5,85.5C 99.5,83.5 99.5,81.5 99.5,79.5C 106.167,79.5 112.833,79.5 119.5,79.5 Z"/></g>
<g><path style="opacity:0.318" fill="#bcf2f1" d="M 133.5,78.5 C 131.718,80.357 129.385,81.357 126.5,81.5C 126.5,80.8333 126.5,80.1667 126.5,79.5C 128.95,79.702 131.283,79.3686 133.5,78.5 Z"/></g>
<g><path style="opacity:0.112" fill="#b9f3f4" d="M 169.5,77.5 C 169.769,81.9315 169.436,86.2648 168.5,90.5C 165.135,95.1939 160.469,97.1939 154.5,96.5C 152.086,95.0892 150.419,93.0892 149.5,90.5C 148.431,85.4568 150.097,81.6235 154.5,79C 159.448,77.9502 164.448,77.4502 169.5,77.5 Z M 161.5,78.5 C 163.792,78.2436 165.959,78.5769 168,79.5C 170.004,89.8175 165.838,94.9841 155.5,95C 154.069,94.5348 152.903,93.7014 152,92.5C 149.873,84.1403 153.04,79.4737 161.5,78.5 Z"/></g>
<g><path style="opacity:0.123" fill="#b2f2f2" d="M 193.5,103.5 C 193.5,103.167 193.5,102.833 193.5,102.5C 193.5,101.833 193.833,101.5 194.5,101.5C 196.833,101.5 199.167,101.5 201.5,101.5C 201.5,91.8333 201.5,82.1667 201.5,72.5C 201.5,71.5 201.5,70.5 201.5,69.5C 204.422,63.1998 209.422,60.1998 216.5,60.5C 216.5,57.8333 216.5,55.1667 216.5,52.5C 213.482,52.7038 210.482,53.0371 207.5,53.5C 210.527,51.3739 213.86,51.0405 217.5,52.5C 218.544,54.7676 218.711,57.1009 218,59.5C 215.358,61.4257 212.358,62.759 209,63.5C 207.674,64.7989 206.34,66.1322 205,67.5C 203.757,78.7761 203.09,90.1094 203,101.5C 200.096,103.227 196.93,103.893 193.5,103.5 Z"/></g>
<g><path style="opacity:0.61" fill="#7ed8d7" d="M 169.5,77.5 C 170.163,79.4726 170.496,81.6392 170.5,84C 170.467,86.6103 169.8,88.777 168.5,90.5C 169.436,86.2648 169.769,81.9315 169.5,77.5 Z"/></g>
<g><path style="opacity:1" fill="#39bbbb" d="M 176.5,62.5 C 178.381,75.3601 179.047,88.3601 178.5,101.5C 176.265,101.795 174.265,101.461 172.5,100.5C 172.343,99.1266 172.51,97.7932 173,96.5C 173.434,100.223 174.268,100.39 175.5,97C 175.378,86.9165 175.378,76.7498 175.5,66.5C 175.232,64.901 175.566,63.5676 176.5,62.5 Z"/></g>
<g><path style="opacity:0.506" fill="#9f8bc4" d="M 119.5,79.5 C 119.833,79.5 120.167,79.5 120.5,79.5C 120.5,80.1667 120.833,80.5 121.5,80.5C 121.5,82.1667 121.5,83.8333 121.5,85.5C 121.167,85.5 120.833,85.5 120.5,85.5C 119.566,84.4324 119.232,83.099 119.5,81.5C 119.5,80.8333 119.5,80.1667 119.5,79.5 Z"/></g>
<g><path style="opacity:1" fill="#3bbfc2" d="M 154.5,73.5 C 155.952,74.3019 157.618,74.8019 159.5,75C 159.167,75.3333 158.833,75.6667 158.5,76C 162.356,76.1773 166.023,76.6773 169.5,77.5C 164.448,77.4502 159.448,77.9502 154.5,79C 150.097,81.6235 148.431,85.4568 149.5,90.5C 148.686,88.369 148.186,86.0356 148,83.5C 145.916,87.5832 146.083,91.5832 148.5,95.5C 147.349,96.731 146.183,96.731 145,95.5C 144.274,90.4477 144.441,85.4477 145.5,80.5C 147.483,79.0978 149.149,77.2645 150.5,75C 151.745,74.2086 153.078,73.7086 154.5,73.5 Z"/></g>
<g><path style="opacity:1" fill="#4f3282" d="M 121.5,80.5 C 122.5,80.5 123.5,80.5 124.5,80.5C 125.763,84.2706 125.596,87.9372 124,91.5C 123.95,89.256 123.117,87.5893 121.5,86.5C 121.5,86.1667 121.5,85.8333 121.5,85.5C 121.5,83.8333 121.5,82.1667 121.5,80.5 Z"/></g>
<g><path style="opacity:0.161" fill="#c4b7d8" d="M 125.5,79.5 C 125.833,79.5 126.167,79.5 126.5,79.5C 126.5,80.1667 126.5,80.8333 126.5,81.5C 127.475,84.0667 128.142,86.7334 128.5,89.5C 127.833,89.1667 127.167,88.8333 126.5,88.5C 126.425,85.7938 126.092,83.1272 125.5,80.5C 125.5,80.1667 125.5,79.8333 125.5,79.5 Z"/></g>
<g><path style="opacity:0.229" fill="#b6f3f4" d="M 141.5,81.5 C 140.8,85.7978 140.467,90.1311 140.5,94.5C 139.839,92.866 139.506,91.0326 139.5,89C 139.3,86.1345 139.967,83.6345 141.5,81.5 Z"/></g>
<g><path style="opacity:1" fill="#2ebbbc" d="M 76.5,95.5 C 67.4373,102.659 57.4373,104.325 46.5,100.5C 51.9851,99.6728 57.6518,99.1728 63.5,99C 58.7709,98.7273 54.1042,98.0607 49.5,97C 54.0195,96.8247 58.3528,96.3247 62.5,95.5C 64.1172,94.962 65.7839,94.6287 67.5,94.5C 69.7567,94.0383 71.7567,93.0383 73.5,91.5C 76.4443,82.1833 73.7776,75.1833 65.5,70.5C 66.2472,70.2635 67.0805,69.9302 68,69.5C 69.7337,70.2489 71.567,70.7489 73.5,71C 75.0062,73.3333 76.6729,75.5 78.5,77.5C 79.6609,81.7953 79.8275,86.1287 79,90.5C 78.6667,90.1667 78.3333,89.8333 78,89.5C 77.1667,91.1667 76.3333,92.8333 75.5,94.5C 75.6236,95.1067 75.9569,95.44 76.5,95.5 Z"/></g>
<g><path style="opacity:0.227" fill="#a8e8e7" d="M 94.5,61.5 C 94.3568,64.0974 93.5234,66.4308 92,68.5C 91.5005,74.4908 91.3338,80.4908 91.5,86.5C 92.5,89.1667 93.5,91.8333 94.5,94.5C 92.8639,93.2511 91.6972,91.5844 91,89.5C 89,81.8333 89,74.1667 91,66.5C 92.0298,64.6536 93.1964,62.9869 94.5,61.5 Z"/></g>
<g><path style="opacity:1" fill="#32bcba" d="M 98.5,85.5 C 98.8333,85.5 99.1667,85.5 99.5,85.5C 99.8333,85.5 100.167,85.5 100.5,85.5C 100.849,89.5302 102.849,92.5302 106.5,94.5C 105.833,96.5 105.167,98.5 104.5,100.5C 102.958,99.6993 101.292,99.366 99.5,99.5C 98.1667,97.5 96.5,95.8333 94.5,94.5C 93.5,91.8333 92.5,89.1667 91.5,86.5C 92.4013,85.7095 93.0679,84.7095 93.5,83.5C 94.9432,82.6649 95.9432,81.3316 96.5,79.5C 97.1687,81.6309 97.8354,83.6309 98.5,85.5 Z"/></g>
<g><path style="opacity:0.18" fill="#a9edef" d="M 232.5,85.5 C 233.89,86.8993 234.89,88.5659 235.5,90.5C 232.916,89.9517 231.916,88.285 232.5,85.5 Z"/></g>
<g><path style="opacity:0.098" fill="#b4a5c8" d="M 120.5,85.5 C 120.833,85.5 121.167,85.5 121.5,85.5C 121.5,85.8333 121.5,86.1667 121.5,86.5C 122.301,88.0418 122.634,89.7085 122.5,91.5C 120.72,90.0101 120.054,88.0101 120.5,85.5 Z"/></g>
<g><path style="opacity:0.329" fill="#b3eceb" d="M 49.5,93.5 C 42.1357,90.8643 39.8023,93.1976 42.5,100.5C 40.8793,100.213 39.8793,99.2131 39.5,97.5C 40.5871,90.0303 43.9204,88.697 49.5,93.5 Z"/></g>
<g><path style="opacity:1" fill="#5d488d" d="M 124.5,80.5 C 124.833,80.5 125.167,80.5 125.5,80.5C 126.092,83.1272 126.425,85.7938 126.5,88.5C 127.038,90.1172 127.371,91.7839 127.5,93.5C 126.167,93.5 124.833,93.5 123.5,93.5C 123.5,92.8333 123.167,92.5 122.5,92.5C 122.5,92.1667 122.5,91.8333 122.5,91.5C 122.634,89.7085 122.301,88.0418 121.5,86.5C 123.117,87.5893 123.95,89.256 124,91.5C 125.596,87.9372 125.763,84.2706 124.5,80.5 Z"/></g>
<g><path style="opacity:1" fill="#38b8ba" d="M 224.5,66.5 C 224.833,66.5 225.167,66.5 225.5,66.5C 224.227,74.5033 224.227,82.5033 225.5,90.5C 226.822,90.33 227.989,90.6634 229,91.5C 229.272,88.7462 229.772,86.0795 230.5,83.5C 231.167,84.1667 231.833,84.8333 232.5,85.5C 231.916,88.285 232.916,89.9517 235.5,90.5C 236.56,93.7686 238.893,95.4353 242.5,95.5C 242.5,95.8333 242.5,96.1667 242.5,96.5C 238.715,96.6311 235.048,97.2978 231.5,98.5C 228.466,96.1325 225.799,93.4658 223.5,90.5C 222.628,84.2111 222.295,77.8778 222.5,71.5C 222.796,69.597 223.463,67.9303 224.5,66.5 Z"/></g>
<g><path style="opacity:0.725" fill="#7c91b6" d="M 126.5,88.5 C 127.167,88.8333 127.833,89.1667 128.5,89.5C 129.441,91.0495 130.107,92.7162 130.5,94.5C 127.941,94.8016 125.607,94.4682 123.5,93.5C 124.833,93.5 126.167,93.5 127.5,93.5C 127.371,91.7839 127.038,90.1172 126.5,88.5 Z"/></g>
<g><path style="opacity:0.246" fill="#adf5f5" d="M 71.5,86.5 C 71.2241,89.7186 69.8907,92.3852 67.5,94.5C 65.7839,94.6287 64.1172,94.962 62.5,95.5C 57.706,96.0969 53.3727,95.4302 49.5,93.5C 52.2492,93.2739 54.9159,93.6072 57.5,94.5C 64.0776,94.8857 68.7442,92.219 71.5,86.5 Z"/></g>
<g><path style="opacity:0.478" fill="#a2e6e5" d="M 223.5,90.5 C 225.799,93.4658 228.466,96.1325 231.5,98.5C 233.672,99.8017 236.006,100.968 238.5,102C 244.195,102.626 249.862,102.459 255.5,101.5C 256.5,101.5 257.5,101.5 258.5,101.5C 248.044,105.962 238.044,104.962 228.5,98.5C 225.988,96.3297 224.321,93.663 223.5,90.5 Z"/></g>
<g><path style="opacity:0.063" fill="#bcf5f6" d="M 235.5,90.5 C 242.083,94.8629 249.083,95.5296 256.5,92.5C 260.431,94.126 261.431,96.7927 259.5,100.5C 259.739,98.5328 259.406,96.6995 258.5,95C 253.201,95.1919 247.867,95.3586 242.5,95.5C 238.893,95.4353 236.56,93.7686 235.5,90.5 Z"/></g>
<g><path style="opacity:0.039" fill="#b8f2f0" d="M 94.5,94.5 C 96.5,95.8333 98.1667,97.5 99.5,99.5C 96.8333,98.8333 95.1667,97.1667 94.5,94.5 Z"/></g>
<g><path style="opacity:0.443" fill="#a0e7e5" d="M 100.5,85.5 C 101.879,88.3859 103.879,90.8859 106.5,93C 111.698,95.3691 117.031,95.8691 122.5,94.5C 122.5,95.1667 122.5,95.8333 122.5,96.5C 117.03,96.7535 111.696,96.0868 106.5,94.5C 102.849,92.5302 100.849,89.5302 100.5,85.5 Z"/></g>
<g><path style="opacity:1" fill="#449fb5" d="M 194.5,101.5 C 193.833,101.5 193.5,101.833 193.5,102.5C 193.167,102.5 192.833,102.5 192.5,102.5C 192.806,99.6146 192.473,96.9479 191.5,94.5C 191.833,93.8333 192.167,93.1667 192.5,92.5C 193.117,92.3893 193.617,92.056 194,91.5C 194.498,94.8168 194.665,98.1501 194.5,101.5 Z"/></g>
<g><path style="opacity:0.573" fill="#79d1d2" d="M 259.5,100.5 C 259.5,101.167 259.167,101.5 258.5,101.5C 257.5,101.5 256.5,101.5 255.5,101.5C 256.209,100.596 257.209,100.263 258.5,100.5C 258.617,98.5165 257.95,96.8498 256.5,95.5C 251.9,96.4435 247.233,96.7768 242.5,96.5C 242.5,96.1667 242.5,95.8333 242.5,95.5C 247.867,95.3586 253.201,95.1919 258.5,95C 259.406,96.6995 259.739,98.5328 259.5,100.5 Z"/></g>
<g><path style="opacity:1" fill="#39c2c1" d="M 49.5,93.5 C 53.3727,95.4302 57.706,96.0969 62.5,95.5C 58.3528,96.3247 54.0195,96.8247 49.5,97C 54.1042,98.0607 58.7709,98.7273 63.5,99C 57.6518,99.1728 51.9851,99.6728 46.5,100.5C 45.1667,100.5 43.8333,100.5 42.5,100.5C 39.8023,93.1976 42.1357,90.8643 49.5,93.5 Z"/></g>
<g><path style="opacity:1" fill="#52a4b4" d="M 122.5,92.5 C 123.167,92.5 123.5,92.8333 123.5,93.5C 125.607,94.4682 127.941,94.8016 130.5,94.5C 130.5,95.1667 130.5,95.8333 130.5,96.5C 129.833,97.8333 129.167,99.1667 128.5,100.5C 128.5,98.8333 128.5,97.1667 128.5,95.5C 126.379,95.3253 124.379,95.6586 122.5,96.5C 122.5,95.8333 122.5,95.1667 122.5,94.5C 122.5,93.8333 122.5,93.1667 122.5,92.5 Z"/></g>
<g><path style="opacity:0.114" fill="#bbc8db" d="M 130.5,94.5 C 131.906,94.9731 132.573,95.9731 132.5,97.5C 131.833,97.1667 131.167,96.8333 130.5,96.5C 130.5,95.8333 130.5,95.1667 130.5,94.5 Z"/></g>
<g><path style="opacity:0.137" fill="#b8efef" d="M 140.5,94.5 C 141.167,94.8333 141.833,95.1667 142.5,95.5C 143.248,97.3325 144.248,98.9991 145.5,100.5C 142.914,99.3615 141.247,97.3615 140.5,94.5 Z"/></g>
<g><path style="opacity:1" fill="#4b5f87" d="M 190.5,94.5 C 190.833,94.5 191.167,94.5 191.5,94.5C 192.473,96.9479 192.806,99.6146 192.5,102.5C 192.5,103.167 192.167,103.5 191.5,103.5C 191.975,100.918 191.308,98.9179 189.5,97.5C 190.11,96.609 190.443,95.609 190.5,94.5 Z"/></g>
<g><path style="opacity:1" fill="#3cb9be" d="M 106.5,94.5 C 111.696,96.0868 117.03,96.7535 122.5,96.5C 124.379,95.6586 126.379,95.3253 128.5,95.5C 128.5,97.1667 128.5,98.8333 128.5,100.5C 128.672,101.492 128.338,102.158 127.5,102.5C 121.022,102.349 114.355,102.183 107.5,102C 106.263,101.768 105.263,101.268 104.5,100.5C 105.167,98.5 105.833,96.5 106.5,94.5 Z"/></g>
<g><path style="opacity:1" fill="#34b6ba" d="M 145.5,80.5 C 144.441,85.4477 144.274,90.4477 145,95.5C 146.183,96.731 147.349,96.731 148.5,95.5C 146.083,91.5832 145.916,87.5832 148,83.5C 148.186,86.0356 148.686,88.369 149.5,90.5C 150.419,93.0892 152.086,95.0892 154.5,96.5C 157.788,97.0986 160.788,98.4319 163.5,100.5C 157.636,103.06 151.636,103.06 145.5,100.5C 144.248,98.9991 143.248,97.3325 142.5,95.5C 142.334,91.1539 142.501,86.8206 143,82.5C 143.708,81.6195 144.542,80.9528 145.5,80.5 Z"/></g>
<g><path style="opacity:1" fill="#6383a5" d="M 130.5,96.5 C 131.167,96.8333 131.833,97.1667 132.5,97.5C 132.5,97.8333 132.5,98.1667 132.5,98.5C 130.386,99.784 129.386,101.784 129.5,104.5C 128.5,104.167 127.833,103.5 127.5,102.5C 128.338,102.158 128.672,101.492 128.5,100.5C 129.167,99.1667 129.833,97.8333 130.5,96.5 Z"/></g>
<g><path style="opacity:1" fill="#36b8b9" d="M 255.5,101.5 C 249.862,102.459 244.195,102.626 238.5,102C 236.006,100.968 233.672,99.8017 231.5,98.5C 235.048,97.2978 238.715,96.6311 242.5,96.5C 247.233,96.7768 251.9,96.4435 256.5,95.5C 257.95,96.8498 258.617,98.5165 258.5,100.5C 257.209,100.263 256.209,100.596 255.5,101.5 Z"/></g>
<g><path style="opacity:0.271" fill="#aceaea" d="M 79.5,73.5 C 81.0672,74.6808 81.9005,76.3474 82,78.5C 84.064,87.31 81.564,94.4766 74.5,100C 63.7835,105.81 53.1169,105.977 42.5,100.5C 43.8333,100.5 45.1667,100.5 46.5,100.5C 57.4373,104.325 67.4373,102.659 76.5,95.5C 78.955,93.8601 80.455,91.5268 81,88.5C 81.5699,83.3927 81.0699,78.3927 79.5,73.5 Z"/></g>
<g><path style="opacity:0.31" fill="#a4e7ea" d="M 99.5,99.5 C 101.292,99.366 102.958,99.6993 104.5,100.5C 105.263,101.268 106.263,101.768 107.5,102C 114.355,102.183 121.022,102.349 127.5,102.5C 120.53,104.617 113.53,104.783 106.5,103C 103.719,102.478 101.385,101.311 99.5,99.5 Z"/></g>
<g><path style="opacity:0.133" fill="#ade9e8" d="M 175.5,58.5 C 177.136,59.7489 178.303,61.4156 179,63.5C 179.455,76.5251 179.789,89.5251 180,102.5C 175.489,104.431 171.822,103.431 169,99.5C 164.87,102.537 160.203,104.204 155,104.5C 151.338,104.079 148.171,102.745 145.5,100.5C 151.636,103.06 157.636,103.06 163.5,100.5C 166.196,99.1153 168.863,97.7819 171.5,96.5C 171.232,98.099 171.566,99.4324 172.5,100.5C 174.265,101.461 176.265,101.795 178.5,101.5C 179.047,88.3601 178.381,75.3601 176.5,62.5C 176.167,61.1667 175.833,59.8333 175.5,58.5 Z"/></g>
<g><path style="opacity:1" fill="#635788" d="M 189.5,98.5 C 188.5,102.833 185.833,105.5 181.5,106.5C 184.158,103.876 186.825,101.209 189.5,98.5 Z"/></g>
<g><path style="opacity:0.357" fill="#c0b6d8" d="M 190.5,94.5 C 190.443,95.609 190.11,96.609 189.5,97.5C 189.5,97.8333 189.5,98.1667 189.5,98.5C 186.825,101.209 184.158,103.876 181.5,106.5C 177.353,109.57 172.687,111.57 167.5,112.5C 162.968,112.818 158.634,112.485 154.5,111.5C 170.002,112.946 182.002,107.279 190.5,94.5 Z"/></g>
<g><path style="opacity:0.235" fill="#baaacd" d="M 129.5,104.5 C 130.833,104.5 131.5,105.167 131.5,106.5C 131.5,105.167 130.833,104.5 129.5,104.5 Z"/></g>
<g><path style="opacity:0.318" fill="#c2b3d9" d="M 192.5,102.5 C 192.833,102.5 193.167,102.5 193.5,102.5C 193.5,102.833 193.5,103.167 193.5,103.5C 193.047,104.458 192.381,105.292 191.5,106C 193.424,107.75 195.091,109.583 196.5,111.5C 192.183,110.233 190.517,107.567 191.5,103.5C 192.167,103.5 192.5,103.167 192.5,102.5 Z"/></g>
<g><path style="opacity:1" fill="#5b4884" d="M 132.5,98.5 C 136.969,104.984 142.969,109.318 150.5,111.5C 150.5,111.833 150.5,112.167 150.5,112.5C 145.435,112.472 144.769,113.472 148.5,115.5C 147.5,115.5 146.5,115.5 145.5,115.5C 145.167,115.5 144.833,115.5 144.5,115.5C 142.874,112.378 140.208,110.712 136.5,110.5C 136.027,109.094 135.027,108.427 133.5,108.5C 132.5,108.167 131.833,107.5 131.5,106.5C 131.5,105.167 130.833,104.5 129.5,104.5C 129.386,101.784 130.386,99.784 132.5,98.5 Z"/></g>
<g><path style="opacity:0.482" fill="#a99cc5" d="M 133.5,108.5 C 135.027,108.427 136.027,109.094 136.5,110.5C 134.973,110.573 133.973,109.906 133.5,108.5 Z"/></g>
<g><path style="opacity:0.102" fill="#bfbbdb" d="M 132.5,97.5 C 138.235,103.684 144.902,108.351 152.5,111.5C 151.833,111.5 151.167,111.5 150.5,111.5C 142.969,109.318 136.969,104.984 132.5,98.5C 132.5,98.1667 132.5,97.8333 132.5,97.5 Z"/></g>
<g><path style="opacity:0.294" fill="#bfb3d5" d="M 185.5,110.5 C 191.778,115.44 197.778,120.773 203.5,126.5C 207.167,130.5 210.833,134.5 214.5,138.5C 204.22,129.888 194.553,120.555 185.5,110.5 Z"/></g>
<g><path style="opacity:0.796" fill="#8a7ca5" d="M 136.5,110.5 C 140.208,110.712 142.874,112.378 144.5,115.5C 141.151,114.831 138.484,113.164 136.5,110.5 Z"/></g>
<g><path style="opacity:0.533" fill="#9282bd" d="M 150.5,112.5 C 150.5,112.167 150.5,111.833 150.5,111.5C 151.167,111.5 151.833,111.5 152.5,111.5C 153.167,111.5 153.833,111.5 154.5,111.5C 158.634,112.485 162.968,112.818 167.5,112.5C 167.5,113.167 167.167,113.5 166.5,113.5C 161.105,113.733 155.772,113.4 150.5,112.5 Z"/></g>
<g><path style="opacity:0.502" fill="#b5aacf" d="M 196.5,111.5 C 199.215,113.548 201.548,115.882 203.5,118.5C 200.167,117.167 197.833,114.833 196.5,111.5 Z"/></g>
<g><path style="opacity:1" fill="#5b4487" d="M 189.5,97.5 C 191.308,98.9179 191.975,100.918 191.5,103.5C 190.517,107.567 192.183,110.233 196.5,111.5C 197.833,114.833 200.167,117.167 203.5,118.5C 203.833,119.5 204.5,120.167 205.5,120.5C 205.5,121.167 205.5,121.833 205.5,122.5C 205.843,124.483 205.176,125.817 203.5,126.5C 197.778,120.773 191.778,115.44 185.5,110.5C 184.833,110.5 184.5,110.833 184.5,111.5C 182.517,111.157 181.183,111.824 180.5,113.5C 177.177,114.492 173.844,115.492 170.5,116.5C 169.41,115.143 168.076,114.143 166.5,113.5C 167.167,113.5 167.5,113.167 167.5,112.5C 172.687,111.57 177.353,109.57 181.5,106.5C 185.833,105.5 188.5,102.833 189.5,98.5C 189.5,98.1667 189.5,97.8333 189.5,97.5 Z"/></g>
<g><path style="opacity:0.51" fill="#a79cbf" d="M 184.5,111.5 C 183.486,112.674 182.153,113.34 180.5,113.5C 181.183,111.824 182.517,111.157 184.5,111.5 Z"/></g>
<g><path style="opacity:1" fill="#473579" d="M 150.5,112.5 C 155.772,113.4 161.105,113.733 166.5,113.5C 168.076,114.143 169.41,115.143 170.5,116.5C 170.167,116.5 169.833,116.5 169.5,116.5C 163.5,116.5 157.5,116.5 151.5,116.5C 150.391,116.443 149.391,116.11 148.5,115.5C 144.769,113.472 145.435,112.472 150.5,112.5 Z"/></g>
<g><path style="opacity:0.435" fill="#9b8eba" d="M 145.5,115.5 C 146.5,115.5 147.5,115.5 148.5,115.5C 149.391,116.11 150.391,116.443 151.5,116.5C 151.5,116.833 151.5,117.167 151.5,117.5C 149.102,117.741 147.102,117.074 145.5,115.5 Z"/></g>
<g><path style="opacity:0.122" fill="#b4acca" d="M 180.5,113.5 C 175.873,116.997 170.54,118.664 164.5,118.5C 166.167,117.833 167.833,117.167 169.5,116.5C 169.833,116.5 170.167,116.5 170.5,116.5C 173.844,115.492 177.177,114.492 180.5,113.5 Z"/></g>
<g><path style="opacity:0.58" fill="#9386b7" d="M 151.5,116.5 C 157.5,116.5 163.5,116.5 169.5,116.5C 167.833,117.167 166.167,117.833 164.5,118.5C 160.088,119.742 155.754,119.409 151.5,117.5C 151.5,117.167 151.5,116.833 151.5,116.5 Z"/></g>
<g><path style="opacity:0.004" fill="#d9d5eb" d="M 203.5,118.5 C 204.833,118.5 205.5,119.167 205.5,120.5C 204.5,120.167 203.833,119.5 203.5,118.5 Z"/></g>
<g><path style="opacity:1" fill="#594486" d="M 205.5,122.5 C 209.227,126.233 213.227,129.566 217.5,132.5C 219.725,136.235 222.558,139.568 226,142.5C 226.49,143.793 226.657,145.127 226.5,146.5C 225.167,146.5 223.833,146.5 222.5,146.5C 220.833,145.5 219.5,144.167 218.5,142.5C 218.167,141.5 217.5,140.833 216.5,140.5C 216.167,139.5 215.5,138.833 214.5,138.5C 210.833,134.5 207.167,130.5 203.5,126.5C 205.176,125.817 205.843,124.483 205.5,122.5 Z"/></g>
<g><path style="opacity:0.192" fill="#b8b1cf" d="M 205.5,120.5 C 210.215,123.882 214.215,127.882 217.5,132.5C 213.227,129.566 209.227,126.233 205.5,122.5C 205.5,121.833 205.5,121.167 205.5,120.5 Z"/></g>
<g><path style="opacity:0.522" fill="#b1aacc" d="M 217.5,132.5 C 221.131,135.629 224.631,138.963 228,142.5C 229.075,145.531 228.075,147.531 225,148.5C 224.005,147.934 223.172,147.267 222.5,146.5C 223.833,146.5 225.167,146.5 226.5,146.5C 226.657,145.127 226.49,143.793 226,142.5C 222.558,139.568 219.725,136.235 217.5,132.5 Z"/></g>
<g><path style="opacity:0.02" fill="#bdb1d5" d="M 214.5,138.5 C 215.5,138.833 216.167,139.5 216.5,140.5C 215.167,140.5 214.5,139.833 214.5,138.5 Z"/></g>
<g><path style="opacity:0.004" fill="#bcb5dc" d="M 216.5,140.5 C 217.5,140.833 218.167,141.5 218.5,142.5C 217.167,142.5 216.5,141.833 216.5,140.5 Z"/></g>
</svg>
